<svg width="140" height="140" xmlns="http://www.w3.org/2000/svg">

 <g>
  <title>background</title>
  <rect fill="none" id="canvas_background" height="402" width="582" y="-1" x="-1"/>
 </g>
 <g>
  <title>Layer 1</title>
  <path fill="#2a98f2" id="svg_3" d="m84.483,61.244c-11.171,0 -19.812,9.089 -19.812,19.817c0,11.17 8.642,19.672 20.717,19.672c10.124,0 18.617,-8.35 18.617,-19.375c-0.001,-11.475 -8.494,-20.114 -19.522,-20.114z" class="st81"/>
  <path fill="#64c0ff" id="svg_4" d="m99.041,94.209c7.16,-7.16 7.262,-19.07 -0.536,-26.868c-8.111,-8.112 -20.226,-8.214 -28.021,-0.416" class="st109"/>
  <path fill="#64c0ff" id="svg_5" d="m103.852,112.646c-7.001,6.855 -14.155,9.387 -23.684,9.387c-9.691,0 -18.033,-3.131 -25.034,-9.387c-9.239,-8.195 -14.006,-18.924 -14.006,-31.439c0,-11.466 4.471,-21.756 12.817,-29.799c7.443,-7.3 16.531,-11.026 26.668,-11.026c9.682,0 17.13,3.277 22.498,10.134l0,-32.726c-9.575,-6.085 -20.924,-9.623 -33.111,-9.623c-34.154,0 -61.833,27.679 -61.833,61.833c0,34.152 27.679,61.832 61.833,61.832c12.598,0 24.313,-3.777 34.084,-10.248l-0.232,0l0,-8.938z" class="st109"/>
  <path fill="#2a98f2" id="svg_7" d="m8.298,73.844c1.985,32.359 28.84,57.988 61.702,57.988c6.818,0 13.376,-1.115 19.51,-3.156c-2.883,0.717 -5.961,1.043 -9.342,1.043c-9.691,0 -18.033,-3.131 -25.034,-9.387c-9.239,-8.195 -14.006,-18.922 -14.006,-31.438c0,-1.27 0.063,-2.523 0.173,-3.764c-0.107,-1.287 -0.173,-2.594 -0.173,-3.924c0,-11.466 4.471,-21.756 12.817,-29.799c7.443,-7.3 16.531,-11.026 26.668,-11.026c9.682,0 17.13,3.277 22.498,10.134l0,-25.038c-9.575,-6.085 -20.924,-9.623 -33.111,-9.623c-32.862,0 -59.716,25.629 -61.702,57.99z" class="st81"/>
  <path fill="#2a98f2" id="svg_8" d="m103.852,120.332c-2.156,2.111 -4.327,3.811 -6.577,5.154c2.274,-1.121 4.472,-2.373 6.577,-3.754l0,-0.148l0,-1.252z" class="st81"/>
  <path fill="#2a98f2" id="svg_9" d="m126.647,94.785c3.328,-7.59 5.186,-15.969 5.186,-24.785c0,-8.816 -1.857,-17.194 -5.186,-24.786" class="st81"/>
  <path fill="#64c0ff" id="svg_10" d="m126.647,45.214l0,-34.439l-23.535,4.871l0,2.144c10.332,6.568 18.58,16.108 23.535,27.424z" class="st109"/>
  <path fill="#64c0ff" id="svg_11" d="m126.647,94.785c-4.798,10.961 -12.684,20.26 -22.562,26.799l22.562,0l0,-26.799z" class="st109"/>
  <path stroke-miterlimit="10" stroke-linejoin="round" stroke-linecap="round" stroke-width="3" stroke="#33363a" fill="#00ff7f" id="svg_13" d="m84.483,61.244c-11.171,0 -19.812,9.089 -19.812,19.817c0,11.17 8.642,19.672 20.717,19.672c10.124,0 18.617,-8.35 18.617,-19.375c-0.001,-11.475 -8.494,-20.114 -19.522,-20.114z" class="st26"/>
  <path stroke-miterlimit="10" stroke-linejoin="round" stroke-linecap="round" stroke-width="3" stroke="#33363a" fill="#00bf5f" id="svg_14" d="m99.041,94.209c7.16,-7.16 7.262,-19.07 -0.536,-26.868c-8.111,-8.112 -20.226,-8.214 -28.021,-0.416" class="st26"/>
  <path stroke-miterlimit="10" stroke-linejoin="round" stroke-linecap="round" stroke-width="3" stroke="#33363a" fill="#00ff7f" id="svg_15" d="m103.852,112.646c-7.001,6.855 -14.155,9.387 -23.684,9.387c-9.691,0 -18.033,-3.131 -25.034,-9.387c-9.239,-8.195 -14.006,-18.924 -14.006,-31.439c0,-11.466 4.471,-21.756 12.817,-29.799c7.443,-7.3 16.531,-11.026 26.668,-11.026c9.682,0 17.13,3.277 22.498,10.134l0,-32.726c-9.575,-6.085 -20.924,-9.623 -33.111,-9.623c-34.154,0 -61.833,27.679 -61.833,61.833c0,34.152 27.679,61.832 61.833,61.832c12.598,0 24.313,-3.777 34.084,-10.248l-0.232,0l0,-8.938z" class="st26"/>
  <path stroke-miterlimit="10" stroke-linejoin="round" stroke-linecap="round" stroke-width="3" stroke="#33363a" fill="#00ff7f" id="svg_16" d="m126.647,94.785c3.328,-7.59 5.186,-15.969 5.186,-24.785c0,-8.816 -1.857,-17.194 -5.186,-24.786" class="st26"/>
  <path stroke-miterlimit="10" stroke-linejoin="round" stroke-linecap="round" stroke-width="3" stroke="#33363a" fill="#00bf5f" id="svg_17" d="m126.647,45.214l0,-34.439l-23.535,4.871l0,2.144c10.332,6.568 18.58,16.108 23.535,27.424z" class="st26"/>
  <path stroke-miterlimit="10" stroke-linejoin="round" stroke-linecap="round" stroke-width="3" stroke="#33363a" fill="#00bf5f" id="svg_18" d="m126.647,94.785c-4.798,10.961 -12.684,20.26 -22.562,26.799l22.562,0l0,-26.799z" class="st26"/>
 </g>
</svg>